<?xml version="1.0" encoding="UTF-8"?>
<svg version="1.1" xmlns="http://www.w3.org/2000/svg" width="192" height="192">
<path d="M0 0 C19.64310634 16.50723368 34.95998326 37.87100875 38 64 C40.00706443 92.38316441 35.11130766 117.2402984 16.84375 139.64453125 C0.42107852 158.46699451 -21.83614019 172.43272251 -47.21777344 174.22753906 C-75.8329536 175.49950262 -100.20094475 169.80835389 -122.1875 150.625 C-140.72962913 133.23989973 -153.23970686 111.00534464 -154.3828125 85.2890625 C-155.09445376 56.78869783 -148.21659255 32.57486407 -128.3359375 11.37109375 C-94.61920639 -22.8530798 -39.12763276 -29.61944513 0 0 Z " fill="#42A5F8" transform="translate(154,18)"/>
<path d="M0 0 C1.16801147 -0.00938095 2.33602295 -0.0187619 3.53942871 -0.02842712 C5.42546814 -0.01157616 5.42546814 -0.01157616 7.34960938 0.00561523 C8.64402954 0.00416 9.93844971 0.00270477 11.27209473 0.00120544 C14.00924048 -0.00017751 16.74586157 0.01236083 19.48291016 0.03515625 C22.98692517 0.06354161 26.49006875 0.06080269 29.99414825 0.04806614 C33.3418929 0.03942873 36.68937942 0.05455835 40.03710938 0.06811523 C41.9231488 0.06371178 41.9231488 0.06371178 43.84729004 0.05921936 C45.01530151 0.07190353 46.18331299 0.08458771 47.38671875 0.09765625 C48.92749084 0.10576073 48.92749084 0.10576073 50.49938965 0.11402893 C53.60060563 0.56031441 55.0010341 1.28118823 57.19335938 3.50170898 C57.44335938 6.68920898 57.44335938 6.68920898 57.19335938 9.50170898 C57.83273438 9.81108398 58.47210938 10.12045898 59.13085938 10.43920898 C61.19335938 11.50170898 61.19335938 11.50170898 62.19335938 12.50170898 C62.30852804 14.53551957 62.3530477 16.57335634 62.37036133 18.61035156 C62.38961418 20.57292656 62.38961418 20.57292656 62.40925598 22.57514954 C62.41742324 24.01550927 62.424867 25.45587327 62.43164062 26.89624023 C62.43571615 27.61847967 62.43979168 28.34071911 62.44399071 29.08484459 C62.46487073 32.9084482 62.47916328 36.73201572 62.48852539 40.55566406 C62.49958625 44.50703082 62.53397604 48.45783383 62.57369709 52.40900135 C62.59983739 55.44505362 62.60821493 58.48097117 62.61180687 61.51712608 C62.61668063 62.9735971 62.6283172 64.43006179 62.64684486 65.88642311 C62.67117358 67.92577197 62.66785769 69.96539387 62.66333008 72.00488281 C62.66919632 73.16546707 62.67506256 74.32605133 62.68110657 75.52180481 C62.19335938 78.50170898 62.19335938 78.50170898 60.55657959 80.87640381 C57.49519795 82.98186965 55.6142926 83.00286818 51.91186523 83.00341797 C50.64052231 83.01279892 49.36917938 83.02217987 48.05931091 83.03184509 C46.67560145 83.02136788 45.2918985 83.00999901 43.90820312 82.99780273 C42.48621039 82.99795774 41.06421723 82.99944702 39.64222717 83.00221252 C36.66550974 83.00359573 33.68927462 82.99105091 30.71264648 82.96826172 C26.89691634 82.93985072 23.08198582 82.94262208 19.26619625 82.95535183 C16.33135647 82.96230534 13.39670162 82.95452407 10.46188545 82.9420948 C9.05487337 82.93757888 7.64784144 82.93724475 6.24082756 82.9411602 C4.27567143 82.9440695 2.31051898 82.92541583 0.34545898 82.90576172 C-0.77276749 82.90035873 -1.89099396 82.89495575 -3.04310608 82.88938904 C-5.80664062 82.50170898 -5.80664062 82.50170898 -7.64910889 81.21014404 C-11.95645415 74.85280678 -10.00916008 62.70596174 -10.04492188 55.32592773 C-10.0489974 54.61102488 -10.05307293 53.89612202 -10.05727196 53.15955544 C-10.07798164 49.38778614 -10.09235737 45.61605178 -10.10180664 41.84423828 C-10.11294514 37.95587849 -10.14747158 34.06807928 -10.18697834 30.17991924 C-10.21309071 27.17819649 -10.22149275 24.17661006 -10.22508812 21.17478371 C-10.22995435 19.74064076 -10.24156956 18.30650391 -10.26012611 16.87247276 C-10.28443714 14.87231604 -10.28114068 12.87188136 -10.27661133 10.87158203 C-10.28247757 9.73512741 -10.28834381 8.59867279 -10.29438782 7.42778015 C-9.80664062 4.50170898 -9.80664062 4.50170898 -8.1401825 2.13494873 C-5.21578483 0.08817059 -3.55270769 0.00057473 0 0 Z " fill="#FCFDFE" transform="translate(71.806640625,56.498291015625)"/>
<path d="M0 0 C0.66 0 1.32 0 2 0 C2.83819158 1.62249941 3.6704116 3.24808497 4.5 4.875 C4.9640625 5.77992187 5.428125 6.68484375 5.90625 7.6171875 C7 10 7 10 7 12 C11.62 12 16.24 12 21 12 C19 17 19 17 16.75 19.9375 C14.62670507 22.86792643 14.62670507 22.86792643 15.625 26 C16.07875 26.99 16.5325 27.98 17 29 C17.66666667 31 18.33333333 33 19 35 C15.04 35 11.08 35 7 35 C6.5978125 36.3303125 6.5978125 36.3303125 6.1875 37.6875 C5.0749365 40.7909666 3.89804222 43.31110685 2 46 C1.34 46 0.68 46 0 46 C-0.83848804 44.54462432 -1.67063934 43.08559627 -2.5 41.625 C-2.9640625 40.81289062 -3.428125 40.00078125 -3.90625 39.1640625 C-5 37 -5 37 -5 35 C-8.96 35 -12.92 35 -17 35 C-15 29 -15 29 -13.5 26.1875 C-12.88149702 22.24454349 -13.68096749 21.46894441 -15.875 18.25 C-16.44992188 17.49203125 -17.02484375 16.7340625 -17.6171875 15.953125 C-19 14 -19 14 -19 12 C-14.38 12 -9.76 12 -5 12 C-4.34 10.02 -3.68 8.04 -3 6 C-2.02995879 3.98529902 -1.03755118 1.98077953 0 0 Z " fill="#176AAD" transform="translate(95,73)"/>
<path d="M0 0 C3.875 0.875 3.875 0.875 5 2 C5.11516867 4.03381058 5.15968832 6.07164735 5.17700195 8.10864258 C5.19625481 10.07121758 5.19625481 10.07121758 5.21589661 12.07344055 C5.22406386 13.51380029 5.23150762 14.95416428 5.23828125 16.39453125 C5.24235678 17.11677069 5.2464323 17.83901012 5.25063133 18.5831356 C5.27151136 22.40673921 5.2858039 26.23030674 5.29516602 30.05395508 C5.30622688 34.00532183 5.34061666 37.95612485 5.38033772 41.90729237 C5.40647801 44.94334463 5.41485556 47.97926219 5.41844749 51.0154171 C5.42332125 52.47188812 5.43495782 53.9283528 5.45348549 55.38471413 C5.4778142 57.42406299 5.47449831 59.46368488 5.4699707 61.50317383 C5.47583694 62.66375809 5.48170319 63.82434235 5.48774719 65.02009583 C5 68 5 68 3.36322021 70.37469482 C0.30183857 72.48016066 -1.57906678 72.5011592 -5.28149414 72.50170898 C-6.55283707 72.51108994 -7.82417999 72.52047089 -9.13404846 72.53013611 C-10.51775792 72.51965889 -11.90146088 72.50829003 -13.28515625 72.49609375 C-14.70714899 72.49624876 -16.12914215 72.49773803 -17.5511322 72.50050354 C-20.52784963 72.50188675 -23.50408476 72.48934193 -26.48071289 72.46655273 C-30.29644303 72.43814173 -34.11137356 72.44091309 -37.92716312 72.45364285 C-40.86200291 72.46059636 -43.79665775 72.45281508 -46.73147392 72.44038582 C-48.13848601 72.43586989 -49.54551793 72.43553577 -50.95253181 72.43945122 C-52.91768794 72.44236051 -54.88284039 72.42370685 -56.84790039 72.40405273 C-57.96612686 72.39864975 -59.08435333 72.39324677 -60.23646545 72.38768005 C-63 72 -63 72 -64.87278748 70.70521545 C-66.69874583 67.94295693 -66.18148058 65.20615688 -66 62 C-65.01 62.33 -64.02 62.66 -63 63 C-61.0269873 63.0938413 -59.05092615 63.12793129 -57.07568359 63.12939453 C-55.24896622 63.13412277 -55.24896622 63.13412277 -53.38534546 63.13894653 C-52.06966583 63.1369223 -50.75398621 63.13489807 -49.3984375 63.1328125 C-48.03748558 63.13348603 -46.67653378 63.13445646 -45.31558228 63.13571167 C-42.46591037 63.13718534 -39.61626983 63.13504402 -36.76660156 63.13037109 C-33.10668643 63.12466315 -29.44684446 63.1279616 -25.78693199 63.13394356 C-22.97833703 63.13754885 -20.16975956 63.13641093 -17.36116409 63.13381577 C-15.35302941 63.13282097 -13.34489405 63.13586641 -11.33676147 63.13894653 C-10.12525421 63.13579437 -8.91374695 63.13264221 -7.66552734 63.12939453 C-6.59313812 63.12859894 -5.5207489 63.12780334 -4.41586304 63.12698364 C-2.04972789 63.27273322 -2.04972789 63.27273322 -1 62 C-0.87642922 60.06776005 -0.82205542 58.13106201 -0.79467773 56.19506836 C-0.77473251 54.95385727 -0.75478729 53.71264618 -0.73423767 52.43382263 C-0.71725207 51.0691643 -0.70037331 49.70450463 -0.68359375 48.33984375 C-0.66303064 46.95121125 -0.64203434 45.5625851 -0.62062073 44.17396545 C-0.56533353 40.51285941 -0.51595374 36.85169627 -0.46777344 33.19049072 C-0.41760679 29.45702003 -0.36189554 25.72363262 -0.30664062 21.99023438 C-0.19897782 14.6602267 -0.09755106 7.33014995 0 0 Z " fill="#B9C3CA" transform="translate(129,67)"/>
<path d="M0 0 C0.66 0 1.32 0 2 0 C2.83819158 1.62249941 3.6704116 3.24808497 4.5 4.875 C4.9640625 5.77992187 5.428125 6.68484375 5.90625 7.6171875 C7 10 7 10 7 12 C11.62 12 16.24 12 21 12 C19 17 19 17 16.75 19.9375 C14.62670507 22.86792643 14.62670507 22.86792643 15.625 26 C16.07875 26.99 16.5325 27.98 17 29 C17.66666667 31 18.33333333 33 19 35 C15.04 35 11.08 35 7 35 C6.731875 35.886875 6.46375 36.77375 6.1875 37.6875 C5.0749365 40.7909666 3.89804222 43.31110685 2 46 C1.34 46 0.68 46 0 46 C-0.33 44.68 -0.66 43.36 -1 42 C0.485 41.505 0.485 41.505 2 41 C3.16953416 38.57616923 3.16953416 38.57616923 4 36 C4.33 35.34 4.66 34.68 5 34 C2.36 34 -0.28 34 -3 34 C-3 33.67 -3 33.34 -3 33 C0.3 33 3.6 33 7 33 C7.35268934 31.3373217 7.68033861 29.66934283 8 28 C8.2475 26.845 8.495 25.69 8.75 24.5 C9.21721453 21.05328743 9.21721453 21.05328743 8.0625 18.125 C4.9683415 14.93707912 2.36829972 15.21483441 -2 15 C-2 14.34 -2 13.68 -2 13 C0.31 13 2.62 13 5 13 C4.505 12.21625 4.01 11.4325 3.5 10.625 C2 8 2 8 2 6 C1.34 6 0.68 6 0 6 C-0.309375 6.78375 -0.61875 7.5675 -0.9375 8.375 C-2 11 -2 11 -3 13 C-3.66 13 -4.32 13 -5 13 C-4.39254603 8.14036821 -2.27241033 4.2594482 0 0 Z " fill="#095EA6" transform="translate(95,73)"/>
<path d="M0 0 C1.9375 0.375 1.9375 0.375 4 1 C5.43951107 3.87902215 5.14322952 6.37201831 5.16113281 9.58935547 C5.16858017 10.6042807 5.16858017 10.6042807 5.17617798 11.63970947 C5.190805 13.88221243 5.19760249 16.12464464 5.203125 18.3671875 C5.20887605 19.92416384 5.21463379 21.48114016 5.22039795 23.03811646 C5.2309095 26.30487397 5.23675114 29.57160686 5.24023438 32.83837891 C5.24571918 37.02389466 5.269746 41.2090851 5.29820633 45.39449883 C5.31683231 48.61155141 5.32203828 51.82852564 5.32357025 55.04562759 C5.32659747 56.58860172 5.33462836 58.13157444 5.34775543 59.6744957 C5.36481555 61.83386716 5.36293627 63.99244391 5.35644531 66.15185547 C5.36191376 67.99479691 5.36191376 67.99479691 5.36749268 69.87496948 C4.96196311 73.32345257 4.64202068 74.74470177 2 77 C-0.87742615 77.50793457 -0.87742615 77.50793457 -4.42749023 77.51757812 C-5.07499237 77.5245874 -5.72249451 77.53159668 -6.38961792 77.53881836 C-8.52971308 77.55642124 -10.66848518 77.54476799 -12.80859375 77.53125 C-14.29688267 77.53394463 -15.78516987 77.53782681 -17.27345276 77.54284668 C-20.39316565 77.54874504 -23.51242044 77.5401698 -26.63208008 77.52148438 C-30.6283469 77.49871362 -34.62353809 77.51180264 -38.61976528 77.53577423 C-41.69362974 77.55024048 -44.76723995 77.54562227 -47.84111214 77.53526306 C-49.3142923 77.53259699 -50.78749563 77.53586139 -52.26064873 77.54518127 C-54.32209087 77.55535924 -56.38180181 77.53983183 -58.44311523 77.51757812 C-59.61543198 77.51439575 -60.78774872 77.51121338 -61.99559021 77.50793457 C-65 77 -65 77 -67.38142395 75.40338135 C-69.57883498 72.14050304 -69.48190617 69.94876971 -69.45410156 66.02832031 C-69.45468567 65.3352327 -69.45526978 64.64214508 -69.45587158 63.92805481 C-69.45309169 61.64422985 -69.42200707 59.36172103 -69.390625 57.078125 C-69.3831622 55.49201165 -69.37746945 53.90588906 -69.37347412 52.31976318 C-69.35822065 48.15039497 -69.31894187 43.98158644 -69.2746582 39.81243896 C-69.23369898 35.55602591 -69.21546175 31.29952219 -69.1953125 27.04296875 C-69.15244683 18.695056 -69.0841996 10.34759767 -69 2 C-68.67 2 -68.34 2 -68 2 C-67.98969254 2.74422714 -67.97938507 3.48845428 -67.96876526 4.25523376 C-67.87040044 11.30153356 -67.76783421 18.34775713 -67.66066074 25.39392757 C-67.60571966 29.01560115 -67.55234916 32.6372831 -67.50268555 36.2590332 C-67.45461266 39.76042032 -67.40226067 43.26172067 -67.34705925 46.7630024 C-67.31704658 48.73526487 -67.29135731 50.70759163 -67.26576233 52.67991638 C-67.89502255 64.13453124 -67.89502255 64.13453124 -64 74 C-61.22910273 74.3144276 -61.22910273 74.3144276 -57.94555664 74.2746582 C-56.03831566 74.28895622 -56.03831566 74.28895622 -54.09254456 74.30354309 C-52.69841484 74.30328167 -51.30428511 74.30234465 -49.91015625 74.30078125 C-48.48530451 74.30466688 -47.06045393 74.30900127 -45.63560486 74.31376648 C-42.64708708 74.32123454 -39.65868741 74.32093334 -36.67016602 74.31567383 C-32.83874326 74.30987989 -29.00780402 74.32680497 -25.17646122 74.3500185 C-22.23307972 74.36474504 -19.28981493 74.36562902 -16.34640312 74.36250877 C-14.93379191 74.36302259 -13.52117427 74.36827161 -12.10859871 74.37832069 C-10.13371587 74.3906447 -8.1587356 74.38196515 -6.18383789 74.37231445 C-4.49744957 74.37325859 -4.49744957 74.37325859 -2.7769928 74.3742218 C-0.04013846 74.19324794 -0.04013846 74.19324794 1.86222839 72.873703 C3.54187256 70.10763441 3.38153575 67.87036895 3.38818359 64.6484375 C3.40236832 62.68124756 3.40236832 62.68124756 3.4168396 60.67431641 C3.41146992 59.24120787 3.40531698 57.80810208 3.3984375 56.375 C3.40045831 54.90673681 3.40336981 53.4384746 3.40713501 51.97021484 C3.41155806 48.89345745 3.4051282 45.81696139 3.39111328 42.74023438 C3.37402107 38.79559529 3.3838624 34.85156852 3.40183067 30.9069519 C3.41266922 27.87519717 3.40922192 24.84358771 3.4014473 21.81182861 C3.39944547 20.3573601 3.40190398 18.90287842 3.40888596 17.44842529 C3.41650067 15.41614024 3.40283742 13.38380898 3.38818359 11.3515625 C3.38460342 9.61640381 3.38460342 9.61640381 3.38095093 7.84619141 C2.95747448 4.68227989 2.37834616 3.9791271 0 2 C0 1.34 0 0.68 0 0 Z " fill="#0C65AE" transform="translate(130,64)"/>
<path d="M0 0 C0.99 0.33 1.98 0.66 3 1 C4.93128206 1.11669851 6.86618854 1.1766874 8.80078125 1.20532227 C9.9921167 1.22526749 11.18345215 1.24521271 12.41088867 1.26576233 C13.69842041 1.28247482 14.98595215 1.29918732 16.3125 1.31640625 C17.64624659 1.33698957 18.97998685 1.3579864 20.3137207 1.37937927 C23.82404358 1.4345428 27.33442505 1.48396098 30.84484863 1.53222656 C34.4148495 1.58237441 37.98476183 1.63816006 41.5546875 1.69335938 C53.77684584 1.90899051 53.77684584 1.90899051 66 2 C66.99 4.475 66.99 4.475 68 7 C46.55 7 25.1 7 3 7 C2.67 6.34 2.34 5.68 2 5 C1.67 5.99 1.34 6.98 1 8 C0 7 0 7 -0.0625 3.4375 C-0.041875 2.303125 -0.02125 1.16875 0 0 Z " fill="#CCCDCD" transform="translate(63,129)"/>
<path d="M0 0 C3.92860749 0.24952751 4.7243755 0.48719524 7.6875 3.3125 C9.25453687 7.41664419 9.16951825 9.53973431 8 13.75 C6.75 15.921875 6.75 15.921875 5 17.75 C1.59085958 18.6264735 -1.56872766 18.49690544 -5 17.75 C-7.73513776 14.94973991 -8.73804873 13.05975635 -9.5 9.25 C-8.30921506 3.29607532 -6.1200321 0.37009044 0 0 Z " fill="#F9FBFD" transform="translate(96,87.25)"/>
<path d="M0 0 C0 3.96 0 7.92 0 12 C-0.33 12 -0.66 12 -1 12 C-1.33 29.16 -1.66 46.32 -2 64 C-23.33333333 64 -44.66666667 64 -66 64 C-66 63.67 -66 63.34 -66 63 C-64.87913498 62.98786972 -64.87913498 62.98786972 -63.73562622 62.97549438 C-56.70178056 62.89763091 -49.6681296 62.81036564 -42.63453865 62.71247292 C-39.01827982 62.6624757 -35.40205068 62.61614629 -31.78564453 62.578125 C-28.29716911 62.54131498 -24.80894014 62.49496736 -21.3206749 62.44193649 C-19.33871227 62.41431889 -17.35661928 62.39664221 -15.37454224 62.37905884 C-13.57290115 62.3492543 -13.57290115 62.3492543 -11.73486328 62.31884766 C-10.67341095 62.30552399 -9.61195862 62.29220032 -8.51834106 62.2784729 C-5.83004968 62.24678719 -5.83004968 62.24678719 -4 60 C-3.66802252 57.41171572 -3.66802252 57.41171572 -3.68115234 54.35693359 C-3.66128265 53.17586029 -3.64141296 51.99478699 -3.62094116 50.77792358 C-3.60938995 49.49769318 -3.59783875 48.21746277 -3.5859375 46.8984375 C-3.56657135 45.59170074 -3.5472052 44.28496399 -3.5272522 42.93862915 C-3.4758583 39.46332891 -3.43627178 35.98798988 -3.39910889 32.51251221 C-3.35911447 28.96657659 -3.30800141 25.42080338 -3.2578125 21.875 C-3.16096753 14.91678524 -3.07659034 7.95846635 -3 1 C-1 0 -1 0 0 0 Z " fill="#B6B6B7" transform="translate(132,69)"/>
<path d="M0 0 C3.875 0.875 3.875 0.875 5 2 C5.09413687 4.05556661 5.11742998 6.11440181 5.11352539 8.17211914 C5.11367142 8.81600082 5.11381744 9.45988251 5.1139679 10.12327576 C5.11326885 12.26060303 5.10547691 14.39784413 5.09765625 16.53515625 C5.09579204 18.01346285 5.09436815 19.49177007 5.09336853 20.97007751 C5.08954359 24.86798802 5.07971352 28.76586149 5.06866455 32.66375732 C5.05844992 36.63846333 5.0538708 40.61317529 5.04882812 44.58789062 C5.03809122 52.391944 5.02101509 60.19596682 5 68 C4.01 68.495 4.01 68.495 3 69 C1.91542818 65.74628455 1.87953143 63.3910068 1.88647461 59.96801758 C1.88655014 58.72695755 1.88662567 57.48589752 1.88670349 56.20722961 C1.89181009 54.85299642 1.89702609 53.49876363 1.90234375 52.14453125 C1.90420917 50.75876415 1.90563249 49.37299639 1.90663147 47.98722839 C1.9104469 44.3425209 1.92026887 40.69785335 1.93133545 37.05316162 C1.9415705 33.33297262 1.94613358 29.61277715 1.95117188 25.89257812 C1.96189202 18.59503389 1.97895675 11.29752254 2 4 C1.34 3.67 0.68 3.34 0 3 C0 2.01 0 1.02 0 0 Z " fill="#C6CDD0" transform="translate(129,67)"/>
<path d="M0 0 C0.66 0 1.32 0 2 0 C5 4.38461538 5 4.38461538 5 7 C2.69 7 0.38 7 -2 7 C-2 7.66 -2 8.32 -2 9 C-2.433125 9.391875 -2.86625 9.78375 -3.3125 10.1875 C-5.75650099 12.8125381 -6.6817106 15.67288866 -8 19 C-10.52349243 15.87567603 -12.27256146 12.61939504 -14 9 C-12.02 8.67 -10.04 8.34 -8 8 C-11.63 8 -15.26 8 -19 8 C-19 7.34 -19 6.68 -19 6 C-16.70839681 5.97307516 -14.41670454 5.95363876 -12.125 5.9375 C-10.84882812 5.92589844 -9.57265625 5.91429688 -8.2578125 5.90234375 C-5 6 -5 6 -3 7 C-2.690625 6.21625 -2.38125 5.4325 -2.0625 4.625 C-1 2 -1 2 0 0 Z " fill="#327DB5" transform="translate(95,79)"/>
<path d="M0 0 C3.96 0 7.92 0 12 0 C9.64046906 2.35953094 8.22104383 2.49141413 5 3 C5.5053125 3.83144531 6.010625 4.66289063 6.53125 5.51953125 C7.1809375 6.60621094 7.830625 7.69289063 8.5 8.8125 C9.1496875 9.89144531 9.799375 10.97039062 10.46875 12.08203125 C12 15 12 15 12 18 C11.34 18 10.68 18 10 18 C9.67 16.68 9.34 15.36 9 14 C8.34 14 7.68 14 7 14 C6.34 15.98 5.68 17.96 5 20 C6.98 20 8.96 20 11 20 C11 20.33 11 20.66 11 21 C6.05 21.495 6.05 21.495 1 22 C3 16 3 16 4.4375 13.125 C5.10376089 9.42355061 4.58676012 8.81145101 2.625 5.75 C2.14289063 5.08484375 1.66078125 4.4196875 1.1640625 3.734375 C0 2 0 2 0 0 Z " fill="#095DA7" transform="translate(77,86)"/>
<path d="M0 0 C0.66 0 1.32 0 2 0 C2.83819158 1.62249941 3.6704116 3.24808497 4.5 4.875 C4.9640625 5.77992187 5.428125 6.68484375 5.90625 7.6171875 C7 10 7 10 7 12 C11.62 12 16.24 12 21 12 C20.67 12.66 20.34 13.32 20 14 C19.31292969 13.98839844 18.62585938 13.97679688 17.91796875 13.96484375 C17.01691406 13.95582031 16.11585937 13.94679688 15.1875 13.9375 C14.29417969 13.92589844 13.40085937 13.91429688 12.48046875 13.90234375 C9.86586209 13.88990033 9.86586209 13.88990033 7 15 C3.96130589 13.48065294 3.35589694 11.01995228 2 8 C2 7.34 2 6.68 2 6 C1.34 6 0.68 6 0 6 C-0.309375 6.78375 -0.61875 7.5675 -0.9375 8.375 C-2 11 -2 11 -3 13 C-3.66 13 -4.32 13 -5 13 C-4.39254603 8.14036821 -2.27241033 4.2594482 0 0 Z " fill="#1566A9" transform="translate(95,73)"/>
<path d="M0 0 C0.66 0 1.32 0 2 0 C1.67 1.32 1.34 2.64 1 4 C3.3431213 3.74438677 5.67843403 3.40729228 8 3 C8.33 2.34 8.66 1.68 9 1 C9.66 2.65 10.32 4.3 11 6 C7.04 6 3.08 6 -1 6 C-1.268125 6.886875 -1.53625 7.77375 -1.8125 8.6875 C-2.9250635 11.7909666 -4.10195778 14.31110685 -6 17 C-6.66 17 -7.32 17 -8 17 C-8.33 15.68 -8.66 14.36 -9 13 C-8.01 12.67 -7.02 12.34 -6 12 C-4.83046584 9.57616923 -4.83046584 9.57616923 -4 7 C-3.67 6.34 -3.34 5.68 -3 5 C-5.64 5 -8.28 5 -11 5 C-11 4.67 -11 4.34 -11 4 C-7.7 4 -4.4 4 -1 4 C-0.67 2.68 -0.34 1.36 0 0 Z " fill="#085DA7" transform="translate(103,102)"/>
<path d="M0 0 C0.79419342 0.97311127 0.79419342 0.97311127 1.60443115 1.96588135 C4.68466578 4.58136147 6.32484498 4.51436886 10.32910156 4.54589844 C11.61012756 4.56561707 12.89115356 4.58533569 14.21099854 4.60565186 C15.60420692 4.60731489 16.99741587 4.60854583 18.390625 4.609375 C19.81982293 4.62435901 21.24900356 4.64108663 22.67816162 4.65948486 C26.43299155 4.70314681 30.18758791 4.72315456 33.94262695 4.73822021 C37.77699589 4.75779574 41.61111275 4.79976514 45.4453125 4.83984375 C52.96347388 4.9151331 60.48152941 4.96543188 68 5 C68 5.33 68 5.66 68 6 C59.42921353 6.02314216 50.85844005 6.04092467 42.28763008 6.05181217 C38.30811588 6.05703689 34.32862301 6.0641271 30.34912109 6.07543945 C26.51066757 6.08628291 22.6722346 6.09227994 18.83376694 6.09487724 C17.36730501 6.09672885 15.90084423 6.10034444 14.43439102 6.10573006 C12.38478388 6.11295983 10.33526232 6.11399012 8.28564453 6.11352539 C6.533582 6.11685631 6.533582 6.11685631 4.74612427 6.12025452 C2 6 2 6 0 5 C0 3.35 0 1.7 0 0 Z " fill="#004395" transform="translate(62,134)"/>
<path d="M0 0 C6.75 -0.125 6.75 -0.125 9 1 C10.53668865 1.22467831 12.07968054 1.40796805 13.625 1.5625 C14.44226563 1.64628906 15.25953125 1.73007813 16.1015625 1.81640625 C16.72804688 1.87699219 17.35453125 1.93757813 18 2 C15 9.57142857 15 9.57142857 12 12 C11.525625 10.88625 11.05125 9.7725 10.5625 8.625 C9.74693537 6.73289006 8.92143645 4.84287291 8 3 C6.10466658 2.53476937 6.10466658 2.53476937 3.9375 2.375 C2.638125 2.25125 1.33875 2.1275 0 2 C0 1.34 0 0.68 0 0 Z " fill="#1466AB" transform="translate(93,86)"/>
<path d="M0 0 C0.66 0 1.32 0 2 0 C2.33 1.32 2.66 2.64 3 4 C3.66 4 4.32 4 5 4 C5.33 3.34 5.66 2.68 6 2 C6.33 2.66 6.66 3.32 7 4 C10.63 4 14.26 4 18 4 C18 4.66 18 5.32 18 6 C16.84371094 6.09087891 16.84371094 6.09087891 15.6640625 6.18359375 C14.66117188 6.26738281 13.65828125 6.35117188 12.625 6.4375 C11.12839844 6.55931641 11.12839844 6.55931641 9.6015625 6.68359375 C7.02072387 6.84965626 7.02072387 6.84965626 5 8 C3.29297265 8.06996014 1.58331997 8.08440154 -0.125 8.0625 C-1.03507812 8.05347656 -1.94515625 8.04445313 -2.8828125 8.03515625 C-3.58148438 8.02355469 -4.28015625 8.01195313 -5 8 C-4.01 7.34 -3.02 6.68 -2 6 C-0.78715124 2.94570927 -0.78715124 2.94570927 0 0 Z " fill="#1D72B1" transform="translate(84,100)"/>
<path d="M0 0 C0.66 0 1.32 0 2 0 C3.25664978 2.90600261 4 4.79604584 4 8 C1.36 8 -1.28 8 -4 8 C-2.25 2.25 -2.25 2.25 0 0 Z " fill="#6AA0CA" transform="translate(108,98)"/>
<path d="M0 0 C0.81549316 0.97114746 0.81549316 0.97114746 1.64746094 1.96191406 C4.52071359 4.45111219 5.88967051 4.52956746 9.640625 4.609375 C11.24550781 4.65771484 11.24550781 4.65771484 12.8828125 4.70703125 C14.54957031 4.72830078 14.54957031 4.72830078 16.25 4.75 C17.37664062 4.77964844 18.50328125 4.80929688 19.6640625 4.83984375 C22.44278021 4.91048912 25.22066148 4.96321277 28 5 C28 5.33 28 5.66 28 6 C23.70834738 6.02891949 19.41671964 6.04677118 15.125 6.0625 C13.90167969 6.07087891 12.67835937 6.07925781 11.41796875 6.08789062 C9.66806641 6.09272461 9.66806641 6.09272461 7.8828125 6.09765625 C6.26463623 6.10551147 6.26463623 6.10551147 4.61376953 6.11352539 C2 6 2 6 0 5 C0 3.35 0 1.7 0 0 Z " fill="#034C9B" transform="translate(62,134)"/>
<path d="M0 0 C0.99 0.33 1.98 0.66 3 1 C3 1.66 3 2.32 3 3 C7.62 3 12.24 3 17 3 C16.67 3.66 16.34 4.32 16 5 C15.31292969 4.98839844 14.62585938 4.97679688 13.91796875 4.96484375 C13.01691406 4.95582031 12.11585937 4.94679688 11.1875 4.9375 C10.29417969 4.92589844 9.40085937 4.91429688 8.48046875 4.90234375 C5.86586209 4.88990033 5.86586209 4.88990033 3 6 C2.34 5.67 1.68 5.34 1 5 C0.375 2.4375 0.375 2.4375 0 0 Z " fill="#2B79B4" transform="translate(99,82)"/>
<path d="M0 0 C3.36720387 1.39332574 4.9859524 2.9789286 7 6 C5.68 6.33 4.36 6.66 3 7 C2.67 6.34 2.34 5.68 2 5 C1.67 5.99 1.34 6.98 1 8 C0 7 0 7 -0.0625 3.4375 C-0.041875 2.303125 -0.02125 1.16875 0 0 Z " fill="#D2D0CF" transform="translate(63,129)"/>
<path d="M0 0 C1.98 0 3.96 0 6 0 C5.34 1.98 4.68 3.96 4 6 C3.34 6 2.68 6 2 6 C1.34 4.02 0.68 2.04 0 0 Z " fill="#E4EFF4" transform="translate(93,108)"/>
<path d="M0 0 C0.66 0 1.32 0 2 0 C2.66 1.98 3.32 3.96 4 6 C2.02 6 0.04 6 -2 6 C-1.34 4.02 -0.68 2.04 0 0 Z " fill="#F0F6F9" transform="translate(95,79)"/>
<path d="M0 0 C0.66 0 1.32 0 2 0 C1.5020163 3.73487777 1.12508244 5.81237635 -1 9 C-1.66 9 -2.32 9 -3 9 C-2.44271087 5.65626525 -1.64826111 2.96687001 0 0 Z " fill="#0D5FA7" transform="translate(93,77)"/>
<path d="M0 0 C2.31 0 4.62 0 7 0 C6.01 1.98 5.02 3.96 4 6 C0 1.125 0 1.125 0 0 Z " fill="#E9F2F5" transform="translate(81,88)"/>
<path d="M0 0 C1.98 0 3.96 0 6 0 C5.01 1.98 4.02 3.96 3 6 C0 2.25 0 2.25 0 0 Z " fill="#F2F7F9" transform="translate(105,88)"/>
<path d="M0 0 C0.66 0 1.32 0 2 0 C2.66 1.65 3.32 3.3 4 5 C2.02 5 0.04 5 -2 5 C-1.34 3.35 -0.68 1.7 0 0 Z " fill="#E0EBF2" transform="translate(84,100)"/>
</svg>
